<?xml version="1.0" encoding="UTF-8"?>
<svg xmlns="http://www.w3.org/2000/svg" width="500" height="500" viewBox="0 0 500 500">
<rect x="0" y="0" width="500" height="500" fill="#ffffff"/>

<metadata>
Created by potrace 1.16, written by Peter Selinger 2001-2019
</metadata>
<g transform="translate(-78.000000,290.000000) scale(0.100000,-0.100000)"
fill="#000000" stroke="none">
<path d="M2140 2891 c0 -5 12 -11 27 -13 27 -3 31 -13 120 -262 50 -143 96
-270 102 -282 8 -17 4 -39 -18 -96 -26 -67 -31 -73 -60 -76 -65 -7 -27 -22 54
-22 50 0 85 4 85 10 0 6 -16 10 -35 10 -19 0 -35 3 -35 8 0 4 16 49 36 100
l36 92 102 0 103 0 33 -87 c18 -49 35 -94 38 -100 3 -9 -6 -13 -27 -13 -17 0
-31 -4 -31 -10 0 -6 40 -10 100 -10 55 0 100 4 100 9 0 5 -12 11 -27 13 -25 3
-31 13 -69 111 l-43 109 86 249 c79 232 87 249 109 249 13 0 24 5 24 10 0 6
-32 10 -75 10 -43 0 -75 -4 -75 -10 0 -5 16 -10 35 -10 19 0 35 -3 35 -7 0 -5
-34 -109 -75 -233 l-74 -225 -14 35 c-15 35 -147 419 -147 426 0 2 18 4 40 4
22 0 40 5 40 10 0 6 -33 10 -80 10 -44 0 -80 -4 -80 -9 0 -5 13 -48 30 -94
l30 -85 -46 -133 c-57 -167 -58 -168 -72 -132 -16 38 -152 424 -152 429 0 2
18 4 40 4 22 0 40 5 40 10 0 6 -42 10 -105 10 -58 0 -105 -4 -105 -9z m461
-388 c22 -54 39 -104 39 -110 0 -10 -25 -13 -90 -13 l-89 0 14 38 c27 74 67
176 72 185 8 13 14 3 54 -100z"/>
<path d="M782 2798 c4 -10 141 -14 631 -16 553 -2 627 0 627 13 0 13 -75 15
-631 15 -500 0 -630 -3 -627 -12z"/>
<path d="M3055 2800 c-3 -6 0 -12 7 -15 26 -10 1253 0 1251 10 -4 14 -1249 19
-1258 5z"/>
<path d="M3113 2603 c14 -4 17 -17 17 -83 0 -66 -3 -79 -17 -83 -10 -3 9 -4
42 -4 33 0 45 2 28 4 l-33 4 0 80 0 79 33 0 c20 0 41 -8 50 -18 21 -24 22 -90
1 -120 -19 -28 -3 -29 22 -1 30 33 25 96 -9 125 -24 20 -38 24 -90 23 -34 -1
-54 -3 -44 -6z"/>
<path d="M3348 2603 c8 -3 12 -30 12 -83 0 -53 -4 -80 -12 -83 -7 -3 17 -6 55
-6 57 -1 67 2 67 16 0 13 -3 14 -12 5 -7 -7 -27 -12 -45 -12 -32 0 -33 1 -33
39 0 37 2 40 33 44 l32 4 -32 1 c-31 2 -33 5 -33 37 0 34 1 35 39 35 22 0 42
-5 44 -12 3 -8 6 -6 6 5 1 15 -8 17 -66 16 -38 0 -62 -3 -55 -6z"/>
<path d="M3557 2592 c-28 -31 -20 -50 34 -77 40 -21 50 -30 47 -48 -5 -36 -82
-36 -91 1 -4 13 -5 12 -6 -5 -1 -18 6 -23 35 -29 91 -17 114 49 34 96 -55 32
-61 63 -13 68 23 2 35 -3 47 -20 16 -22 16 -22 16 -1 0 35 -75 46 -103 15z"/>
<path d="M3728 2603 c8 -3 12 -30 12 -83 0 -53 -4 -80 -12 -83 -7 -3 5 -5 27
-5 22 0 32 2 23 5 -15 4 -18 17 -18 83 0 66 3 79 18 83 9 3 -1 5 -23 5 -22 0
-34 -2 -27 -5z"/>
<path d="M3923 2603 c9 -2 23 -2 30 0 6 3 -1 5 -18 5 -16 0 -22 -2 -12 -5z"/>
<path d="M4088 2603 c8 -3 12 -30 12 -83 0 -53 -4 -80 -12 -83 -7 -3 1 -6 17
-6 19 0 25 2 17 8 -9 5 -12 27 -10 71 l3 64 60 -75 60 -74 3 87 c2 72 6 87 20
91 9 3 1 5 -18 6 -22 0 -30 -2 -22 -8 9 -5 12 -27 10 -70 l-3 -62 -55 71 c-37
47 -61 70 -75 69 -11 0 -14 -3 -7 -6z"/>
<path d="M1106 2592 c5 -4 23 -42 38 -84 29 -80 40 -93 49 -58 3 11 2 18 -3
15 -4 -3 -18 23 -30 56 -19 51 -21 62 -9 70 10 6 3 9 -21 9 -19 0 -30 -4 -24
-8z"/>
<path d="M1211 2574 c5 -15 7 -36 3 -47 -4 -12 -2 -17 4 -13 6 3 18 -16 27
-45 12 -35 20 -48 28 -40 7 7 5 20 -5 43 -33 70 -41 110 -27 119 10 6 6 9 -13
9 -26 0 -27 -2 -17 -26z"/>
<path d="M1300 2596 c0 -9 30 -14 35 -6 4 6 -3 10 -14 10 -12 0 -21 -2 -21 -4z"/>
<path d="M1388 2593 c8 -3 12 -30 12 -83 0 -53 -4 -80 -12 -83 -7 -3 17 -6 55
-6 57 -1 67 2 67 16 0 13 -3 14 -12 5 -7 -7 -27 -12 -45 -12 -32 0 -33 1 -33
39 0 37 2 40 33 44 l32 4 -32 1 c-31 2 -33 5 -33 37 0 34 1 35 39 35 22 0 42
-5 44 -12 3 -8 6 -6 6 5 1 15 -8 17 -66 16 -38 0 -62 -3 -55 -6z"/>
<path d="M1573 2593 c14 -4 17 -17 17 -83 0 -66 -3 -79 -17 -83 -10 -3 7 -5
37 -6 86 -2 132 46 80 82 -18 13 -19 16 -5 27 21 17 19 47 -4 60 -11 5 -44 9
-73 9 -29 -1 -45 -3 -35 -6z m96 -17 c18 -22 -3 -56 -34 -56 -22 0 -25 4 -25
35 0 30 3 35 24 35 13 0 29 -6 35 -14z m11 -86 c16 -30 -4 -60 -40 -60 -28 0
-30 2 -30 40 0 38 2 40 30 40 19 0 33 -7 40 -20z"/>
<path d="M3872 2577 c-31 -32 -29 -87 2 -116 l24 -23 -14 41 c-12 35 -12 47 0
81 7 22 13 40 12 40 -2 0 -12 -10 -24 -23z"/>
<path d="M3981 2583 c7 -10 15 -20 16 -22 2 -2 3 5 3 17 0 14 -6 22 -16 22
-14 0 -15 -3 -3 -17z"/>
<path d="M3973 2503 c20 -5 23 -33 5 -51 -9 -9 -7 -12 10 -12 18 0 22 6 22 29
0 16 6 32 13 34 6 3 -6 5 -28 5 -22 0 -32 -2 -22 -5z"/>
<path d="M3923 2433 c9 -2 23 -2 30 0 6 3 -1 5 -18 5 -16 0 -22 -2 -12 -5z"/>
<path d="M780 2200 c0 -7 217 -10 630 -10 413 0 630 3 630 10 0 7 -217 10
-630 10 -413 0 -630 -3 -630 -10z"/>
<path d="M3050 2200 c0 -7 216 -10 629 -10 409 0 632 4 636 10 4 7 -208 10
-629 10 -417 0 -636 -3 -636 -10z"/>
</g>

</svg>
