<?xml version="1.0" encoding="UTF-8"?>
<svg xmlns="http://www.w3.org/2000/svg" width="500" height="500" viewBox="0 0 500 500">
<rect x="0" y="0" width="500" height="500" fill="#000000"/>

<metadata>
Created by potrace 1.16, written by Peter Selinger 2001-2019
</metadata>
<g transform="translate(-213.223618,290.000000) scale(0.100000,-0.100000)"
fill="#ffffff" stroke="none">
<path d="M2132 2888 c3 -7 17 -15 33 -18 26 -5 32 -17 127 -284 l100 -280 -27
-67 c-24 -62 -29 -68 -57 -71 -17 -2 -33 -9 -36 -15 -3 -10 20 -13 93 -13 86
0 96 2 85 15 -7 8 -23 15 -36 15 -13 0 -24 3 -24 6 0 4 15 47 33 96 l32 88
100 -2 99 -3 33 -85 c17 -47 32 -88 32 -92 1 -4 -11 -8 -26 -10 -14 -2 -28 -9
-31 -15 -3 -10 23 -13 107 -13 110 0 143 11 80 28 -28 7 -35 17 -70 102 -21
52 -38 101 -38 108 -1 8 36 121 81 253 76 220 84 238 107 241 13 2 26 9 29 16
3 9 -18 12 -82 12 -70 0 -86 -3 -86 -15 0 -10 11 -15 35 -15 19 0 35 -3 35 -7
0 -17 -134 -423 -140 -423 -6 0 -150 407 -150 423 0 4 16 7 35 7 24 0 35 5 35
15 0 12 -16 15 -86 15 -65 0 -85 -3 -82 -12 3 -7 18 -50 34 -96 l29 -82 -44
-128 c-24 -70 -47 -133 -51 -141 -4 -8 -38 75 -83 203 -43 119 -77 219 -77
221 0 3 16 5 35 5 24 0 35 5 35 15 0 12 -19 15 -111 15 -84 0 -110 -3 -107
-12z m426 -496 c-44 -2 -82 -1 -84 1 -2 1 16 52 38 111 l42 108 42 -108 42
-109 -80 -3z"/>
</g>

</svg>
