<?xml version="1.0" encoding="UTF-8"?>
<svg xmlns="http://www.w3.org/2000/svg" width="320" height="320" viewBox="0 0 320 320">
<rect x="0" y="0" width="320" height="320" fill="#000000"/>

<metadata>
Created by potrace 1.16, written by Peter Selinger 2001-2019
</metadata>
<g transform="translate(-0.014024,320.021654) scale(0.100000,-0.100000)"
fill="#ffffff" stroke="none">
<path d="M1420 3189 c-164 -26 -243 -44 -332 -75 -333 -116 -581 -300 -797
-594 -70 -94 -176 -303 -216 -425 -104 -315 -99 -694 12 -1015 125 -362 368
-659 704 -861 119 -71 337 -158 452 -180 273 -51 408 -51 697 0 144 26 410
139 549 233 142 97 315 265 413 403 114 161 226 411 259 576 42 215 47 314 25
504 -26 223 -66 364 -156 551 -182 377 -531 684 -917 808 -235 75 -507 104
-693 75z m365 -103 c470 -59 879 -334 1118 -751 91 -158 153 -347 182 -550 63
-451 -97 -916 -429 -1248 -413 -411 -1037 -546 -1581 -341 -151 56 -312 149
-439 253 -140 114 -314 338 -390 504 -46 99 -101 265 -116 352 -7 39 -16 92
-21 118 -12 66 -11 296 2 376 27 166 79 341 136 456 287 578 903 911 1538 831z"/>
<path d="M724 2305 c-13 -33 4 -45 63 -45 l58 0 112 -313 c61 -171 145 -406
186 -522 41 -115 85 -234 97 -264 l21 -55 -58 -152 -58 -153 -65 -3 c-59 -3
-65 -5 -68 -25 l-3 -23 185 0 c146 0 186 3 186 13 0 26 -25 37 -87 37 -35 0
-63 4 -63 8 0 11 74 201 110 282 15 36 31 75 35 88 6 22 7 22 218 22 l212 0
76 -200 76 -199 -66 -3 c-60 -3 -66 -5 -69 -25 l-3 -23 237 0 236 0 -14 22
c-12 18 -27 24 -64 26 l-49 3 -87 218 c-49 120 -88 224 -88 230 0 10 96 292
254 751 24 69 54 155 66 192 l23 67 51 3 c47 3 51 5 51 28 l0 25 -162 3 -163
2 0 -29 0 -30 78 -3 79 -3 -148 -445 c-81 -245 -150 -454 -154 -465 -5 -16
-11 -10 -31 35 -40 87 -119 304 -215 586 -49 144 -91 269 -95 278 -5 14 4 16
75 16 l81 0 0 30 0 30 -168 0 c-93 0 -171 -2 -174 -5 -3 -3 8 -42 24 -88 17
-45 48 -132 69 -194 l40 -112 -60 -163 c-82 -226 -162 -430 -167 -425 -2 2
-34 87 -70 188 -36 101 -86 240 -111 309 -24 69 -66 186 -93 260 -26 74 -51
143 -55 153 -6 15 1 17 74 17 l81 0 0 30 0 30 -220 0 c-187 0 -222 -2 -226
-15z m931 -727 c32 -84 71 -187 87 -228 16 -41 30 -79 31 -85 1 -6 -66 -11
-182 -13 l-183 -2 6 26 c13 48 169 454 176 454 4 0 33 -69 65 -152z"/>
</g>

</svg>
