<?xml version="1.0" standalone="no"?>
<!DOCTYPE svg PUBLIC "-//W3C//DTD SVG 20010904//EN"
 "http://www.w3.org/TR/2001/REC-SVG-20010904/DTD/svg10.dtd">
<svg version="1.0" xmlns="http://www.w3.org/2000/svg"
 width="355.000000pt" height="76.000000pt" viewBox="0 0 355.000000 76.000000"
 preserveAspectRatio="xMidYMid meet">
<metadata>
Created by potrace 1.16, written by Peter Selinger 2001-2019
</metadata>
<g transform="translate(-6.000000,82.000000) scale(0.100000,-0.100000)"
fill="#ffffff" stroke="none">
<path d="M1420 805 c0 -10 10 -15 29 -15 27 0 30 -5 60 -87 17 -49 62 -175
100 -281 l69 -194 -25 -69 c-25 -67 -27 -69 -59 -69 -24 0 -34 -5 -34 -15 0
-12 17 -15 96 -15 72 0 95 3 92 13 -3 6 -19 13 -37 15 -36 4 -37 -3 8 112 l28
75 98 0 97 0 34 -90 c19 -49 34 -91 34 -92 0 -2 -13 -3 -30 -3 -20 0 -30 -5
-30 -15 0 -12 19 -15 111 -15 84 0 110 3 107 13 -3 6 -16 13 -30 15 -22 3 -30
16 -67 110 l-41 107 83 240 c79 230 84 240 110 243 15 2 27 10 27 18 0 11 -18
14 -85 14 -69 0 -85 -3 -85 -15 0 -11 11 -15 36 -15 32 0 35 -2 28 -22 -38
-122 -127 -395 -132 -402 -3 -6 -151 402 -152 421 0 1 17 3 37 5 20 2 38 9 41
16 3 9 -19 12 -87 12 -50 0 -91 -3 -91 -7 0 -4 14 -47 31 -95 l32 -87 -49
-140 -48 -139 -78 216 c-43 120 -78 218 -78 219 0 1 17 3 37 5 20 2 38 9 41
16 3 9 -24 12 -112 12 -96 0 -116 -3 -116 -15z m498 -490 c-3 -3 -39 -5 -80
-3 l-74 3 40 104 40 103 39 -101 c22 -56 38 -103 35 -106z"/>
<path d="M66 715 c5 -13 83 -15 637 -13 493 2 631 6 635 16 3 9 -129 12 -637
12 -566 0 -640 -2 -635 -15z"/>
<path d="M2340 715 c0 -13 74 -15 632 -13 494 2 632 6 636 16 3 9 -128 12
-632 12 -560 0 -636 -2 -636 -15z"/>
<path d="M2398 523 c8 -3 12 -30 12 -83 0 -53 -4 -80 -12 -83 -7 -3 17 -6 54
-6 57 -1 71 3 95 23 22 19 28 32 28 66 0 34 -6 47 -28 66 -24 20 -38 24 -95
23 -37 0 -61 -3 -54 -6z m114 -20 c12 -11 18 -30 18 -61 0 -52 -21 -82 -57
-82 -22 0 -23 3 -23 80 0 75 1 80 22 80 12 0 30 -7 40 -17z"/>
<path d="M2628 523 c8 -3 12 -30 12 -83 0 -53 -4 -80 -12 -83 -7 -3 22 -6 65
-6 l77 -1 0 30 c0 36 -11 39 -25 8 -6 -14 -21 -24 -37 -26 -26 -3 -28 -1 -28
37 0 37 2 40 33 44 l32 4 -32 1 c-31 2 -33 5 -33 37 0 32 2 35 30 35 17 0 30
-4 30 -8 0 -5 7 -17 15 -28 14 -18 14 -17 15 14 l0 32 -77 -1 c-43 0 -72 -3
-65 -6z"/>
<path d="M2836 511 c-26 -28 -13 -54 39 -79 44 -21 60 -52 34 -67 -18 -12 -56
4 -62 25 -8 31 -27 24 -27 -10 0 -30 1 -30 54 -30 58 0 86 16 86 49 0 21 -16
37 -63 60 -39 20 -47 47 -16 56 17 6 27 2 41 -14 19 -25 38 -21 34 7 -4 27
-96 30 -120 3z"/>
<path d="M3013 523 c16 -4 18 -14 16 -80 -3 -54 -7 -77 -19 -83 -10 -7 1 -9
35 -9 28 1 42 3 33 6 -15 4 -18 17 -18 83 0 66 3 79 18 83 9 3 -5 5 -33 5 -27
0 -42 -2 -32 -5z"/>
<path d="M3156 499 c-35 -42 -34 -82 4 -120 27 -28 35 -30 87 -27 56 3 58 4
58 31 1 16 7 32 15 37 10 7 -1 9 -35 9 -27 -1 -42 -3 -32 -6 21 -6 22 -36 1
-53 -11 -10 -23 -11 -41 -4 -54 19 -53 130 1 149 26 9 31 6 57 -25 l29 -34 0
37 0 37 -59 0 c-54 0 -62 -3 -85 -31z"/>
<path d="M3368 523 c8 -3 12 -30 12 -83 0 -53 -4 -80 -12 -83 -7 -3 5 -6 27
-6 25 0 35 2 27 8 -9 5 -12 25 -10 59 l3 52 48 -60 c66 -84 77 -80 77 24 0 58
4 86 13 89 6 3 -6 6 -27 6 -33 1 -37 -1 -25 -11 11 -10 13 -26 9 -58 l-5 -45
-45 58 c-37 48 -50 57 -75 56 -16 0 -24 -3 -17 -6z"/>
<path d="M386 512 c6 -4 24 -43 40 -87 18 -47 35 -80 43 -80 8 0 21 20 30 45
l15 45 15 -47 c8 -27 20 -48 26 -48 7 0 25 35 40 78 15 42 32 83 37 90 8 9 2
12 -23 12 -23 0 -30 -3 -20 -9 11 -7 11 -17 -4 -60 -9 -29 -18 -51 -20 -49 -2
2 -12 26 -23 55 -18 47 -18 52 -3 56 9 3 -1 5 -21 6 -37 1 -37 0 -27 -26 10
-27 4 -79 -11 -88 -5 -3 -16 18 -25 46 -15 43 -15 53 -4 60 9 6 -2 9 -31 9
-25 0 -40 -4 -34 -8z"/>
<path d="M668 513 c8 -3 12 -30 12 -83 0 -53 -4 -80 -12 -83 -7 -3 22 -6 65
-6 l77 -1 0 30 c0 36 -11 39 -25 8 -6 -14 -21 -24 -37 -26 -26 -3 -28 -1 -28
37 0 37 2 40 33 44 l32 4 -32 1 c-31 2 -33 5 -33 37 0 32 2 35 30 35 17 0 30
-4 30 -8 0 -5 7 -17 15 -28 14 -18 14 -17 15 14 l0 32 -77 -1 c-43 0 -72 -3
-65 -6z"/>
<path d="M853 513 c14 -4 17 -17 17 -83 0 -66 -3 -79 -17 -83 -10 -3 14 -5 53
-6 57 -1 74 3 87 17 23 25 21 49 -3 64 -18 11 -18 14 -3 30 13 15 14 23 5 43
-11 23 -16 25 -84 24 -40 -1 -65 -3 -55 -6z m100 -25 c8 -12 7 -21 -2 -32 -23
-28 -41 -19 -41 20 0 28 4 35 16 32 9 -2 22 -10 27 -20z m11 -80 c14 -23 -3
-52 -33 -56 -19 -3 -21 1 -21 38 0 37 2 41 21 38 12 -2 27 -11 33 -20z"/>
<path d="M60 120 c0 -7 220 -10 640 -10 420 0 640 3 640 10 0 7 -220 10 -640
10 -420 0 -640 -3 -640 -10z"/>
<path d="M2340 120 c0 -7 218 -10 635 -10 417 0 635 3 635 10 0 7 -218 10
-635 10 -417 0 -635 -3 -635 -10z"/>
</g>
</svg>
