<?xml version="1.0" standalone="no"?>
<!DOCTYPE svg PUBLIC "-//W3C//DTD SVG 20010904//EN"
 "http://www.w3.org/TR/2001/REC-SVG-20010904/DTD/svg10.dtd">
<svg version="1.0" xmlns="http://www.w3.org/2000/svg"
 width="81.785400pt" height="76.000000pt" viewBox="0 0 81.785400 76.000000"
 preserveAspectRatio="xMidYMid meet">
<metadata>
Created by potrace 1.16, written by Peter Selinger 2001-2019
</metadata>
<g transform="translate(-6.000000,82.000000) scale(0.100000,-0.100000)"
fill="#000000" stroke="none">
<path d="M60 810 c0 -5 13 -10 29 -10 34 0 21 30 151 -338 l82 -234 -24 -66
c-21 -58 -29 -68 -53 -72 -16 -3 -30 -11 -33 -17 -3 -10 18 -13 82 -13 87 0
114 13 52 24 l-33 6 35 95 35 95 101 0 102 0 32 -87 c18 -49 32 -91 32 -95 0
-5 -11 -8 -25 -8 -16 0 -25 -6 -25 -15 0 -12 18 -15 105 -15 105 0 136 12 73
28 -29 7 -36 17 -70 102 -21 51 -38 101 -38 109 0 9 36 123 81 253 68 200 84
237 102 240 11 2 22 9 25 16 3 9 -17 12 -78 12 -61 0 -81 -3 -78 -12 3 -7 20
-14 40 -16 l35 -3 -71 -219 c-39 -121 -74 -220 -77 -220 -5 0 -149 417 -149
432 0 4 14 8 32 10 17 2 33 9 36 16 3 9 -18 12 -82 12 l-86 0 34 -92 33 -93
-50 -148 c-28 -81 -51 -146 -52 -145 -5 5 -155 431 -155 439 0 4 14 9 32 11
17 2 33 9 36 16 3 9 -23 12 -107 12 -67 0 -111 -4 -111 -10z m464 -375 c19
-50 37 -98 41 -107 6 -16 -1 -18 -79 -18 -47 0 -86 2 -86 5 0 10 82 216 85
213 2 -2 20 -44 39 -93z"/>
</g>
</svg>
