<?xml version="1.0" standalone="no"?>
<!DOCTYPE svg PUBLIC "-//W3C//DTD SVG 20010904//EN"
 "http://www.w3.org/TR/2001/REC-SVG-20010904/DTD/svg10.dtd">
<svg version="1.0" xmlns="http://www.w3.org/2000/svg"
 width="355.000000pt" height="76.000000pt" viewBox="0 0 355.000000 76.000000"
 preserveAspectRatio="xMidYMid meet">
<metadata>
Created by potrace 1.16, written by Peter Selinger 2001-2019
</metadata>
<g transform="translate(-6.000000,82.000000) scale(0.100000,-0.100000)"
fill="#d9d9d9" stroke="none">
<path d="M1420 805 c0 -10 10 -15 29 -15 25 0 31 -6 45 -42 9 -24 54 -150 100
-282 l85 -238 -26 -69 c-23 -62 -28 -68 -56 -71 -17 -2 -32 -9 -35 -15 -3 -10
20 -13 93 -13 86 0 96 2 85 15 -7 8 -23 15 -36 15 -13 0 -24 3 -23 8 0 4 15
45 32 92 l33 85 98 0 99 0 33 -90 c19 -49 34 -91 34 -92 0 -2 -13 -3 -30 -3
-20 0 -30 -5 -30 -15 0 -12 19 -15 111 -15 84 0 110 3 107 13 -3 6 -16 13 -30
15 -23 3 -31 16 -68 107 l-42 104 84 245 c76 224 85 245 107 248 14 2 26 9 29
16 3 9 -18 12 -82 12 -70 0 -86 -3 -86 -15 0 -10 11 -15 35 -15 19 0 35 -3 35
-7 0 -14 -132 -408 -140 -416 -3 -4 -37 84 -75 195 -38 112 -70 208 -72 215
-3 7 9 13 33 15 21 2 39 9 42 16 3 9 -19 12 -88 12 -70 0 -91 -3 -88 -12 3 -7
17 -50 32 -96 l28 -83 -48 -140 c-26 -76 -48 -138 -49 -137 -1 2 -35 95 -75
208 -40 113 -75 210 -77 217 -3 7 9 13 33 15 21 2 39 9 42 16 3 9 -24 12 -112
12 -96 0 -116 -3 -116 -15z m468 -392 l40 -103 -84 0 -84 0 21 53 c12 28 30
76 41 105 11 29 21 52 23 50 2 -2 21 -49 43 -105z"/>
<path d="M66 715 c5 -13 83 -15 637 -13 493 2 631 6 635 16 3 9 -129 12 -637
12 -566 0 -640 -2 -635 -15z"/>
<path d="M2340 715 c0 -13 74 -15 632 -13 494 2 632 6 636 16 3 9 -128 12
-632 12 -560 0 -636 -2 -636 -15z"/>
<path d="M2398 523 c8 -3 12 -30 12 -83 0 -53 -4 -80 -12 -83 -7 -3 18 -6 55
-6 59 -1 71 2 92 24 19 18 25 35 25 65 0 30 -6 47 -25 65 -21 22 -33 25 -92
24 -37 0 -62 -3 -55 -6z m116 -19 c22 -21 21 -102 -1 -126 -9 -10 -27 -18 -40
-18 -22 0 -23 3 -23 80 0 78 1 80 24 80 14 0 32 -7 40 -16z"/>
<path d="M2629 521 c18 -11 16 -152 -2 -163 -7 -4 23 -8 66 -8 l77 0 0 33 c-1
30 -1 31 -15 13 -8 -11 -15 -23 -15 -28 0 -4 -13 -8 -30 -8 -28 0 -30 2 -30
39 0 37 2 40 33 44 l32 4 -32 1 c-31 2 -33 5 -33 37 0 32 2 35 31 35 22 0 32
-5 36 -20 7 -28 23 -25 23 5 0 25 -1 25 -77 25 -50 0 -73 -4 -64 -9z"/>
<path d="M2836 511 c-26 -28 -13 -54 39 -79 44 -21 60 -52 34 -67 -18 -12 -57
4 -64 25 -9 30 -25 24 -25 -8 0 -28 2 -29 53 -31 42 -1 57 3 71 18 26 29 16
53 -32 80 -47 25 -61 46 -44 63 14 14 62 1 62 -17 0 -8 5 -15 10 -15 6 0 10
11 10 25 0 23 -3 25 -48 25 -36 0 -54 -5 -66 -19z"/>
<path d="M3013 523 c14 -4 17 -17 17 -83 0 -66 -3 -79 -17 -83 -10 -3 2 -5 27
-5 25 0 39 2 33 5 -9 3 -13 30 -13 83 0 66 3 79 18 83 9 3 -5 5 -33 5 -27 0
-42 -2 -32 -5z"/>
<path d="M3159 501 c-39 -40 -39 -82 1 -122 26 -26 35 -29 85 -28 l55 2 0 33
c0 23 5 34 18 37 9 3 -5 5 -33 5 -27 0 -42 -2 -32 -5 10 -3 17 -14 17 -29 0
-17 -7 -25 -27 -30 -34 -9 -56 5 -67 45 -11 37 2 89 25 104 23 14 67 1 74 -23
10 -30 25 -24 25 10 0 30 0 30 -56 30 -48 0 -59 -4 -85 -29z"/>
<path d="M3368 523 c8 -3 12 -30 12 -83 0 -53 -4 -80 -12 -83 -7 -3 5 -6 26
-6 33 -1 37 1 25 12 -10 9 -13 25 -9 61 l5 49 48 -62 c67 -85 77 -82 77 23 0
58 4 86 13 89 6 3 -6 5 -28 5 -22 0 -32 -2 -22 -5 13 -4 17 -15 17 -59 0 -30
-3 -54 -7 -54 -5 1 -28 27 -53 60 -38 49 -50 59 -75 59 -16 0 -24 -3 -17 -6z"/>
<path d="M387 512 c7 -4 25 -43 41 -87 16 -43 34 -81 40 -83 5 -1 18 18 28 43
l17 47 16 -43 c9 -23 21 -44 28 -46 6 -2 22 30 39 79 15 46 32 86 38 90 6 4
-5 8 -24 8 -24 0 -31 -3 -21 -9 11 -7 10 -18 -6 -67 l-20 -59 -20 62 c-15 44
-18 63 -10 67 7 2 -3 5 -20 5 -31 1 -32 0 -21 -24 8 -19 8 -35 -2 -67 l-12
-43 -23 60 c-16 42 -19 62 -11 67 6 4 -7 8 -29 8 -22 0 -35 -4 -28 -8z"/>
<path d="M669 511 c9 -6 13 -31 13 -81 0 -50 -4 -75 -13 -81 -9 -5 16 -9 64
-9 l77 0 0 33 c-1 30 -1 31 -15 13 -8 -11 -15 -23 -15 -28 0 -4 -13 -8 -30 -8
-28 0 -30 2 -30 39 0 37 2 40 33 44 l32 4 -32 1 c-31 2 -33 5 -33 37 0 32 2
35 31 35 22 0 32 -5 36 -20 7 -28 23 -25 23 5 0 25 -1 25 -77 25 -48 0 -73 -4
-64 -9z"/>
<path d="M858 513 c8 -3 12 -30 12 -83 0 -53 -4 -80 -12 -84 -7 -3 18 -4 57
-3 65 2 70 4 85 30 14 26 14 29 -6 46 -19 15 -20 19 -8 36 18 24 18 30 -2 49
-11 11 -34 16 -77 15 -34 0 -56 -3 -49 -6z m99 -19 c8 -22 -10 -49 -33 -49
-16 0 -22 24 -15 60 3 13 42 3 48 -11z m7 -86 c15 -24 -3 -52 -36 -56 -23 -3
-25 0 -22 35 2 21 3 39 3 41 2 11 46 -6 55 -20z"/>
<path d="M60 120 c0 -7 220 -10 640 -10 420 0 640 3 640 10 0 7 -220 10 -640
10 -420 0 -640 -3 -640 -10z"/>
<path d="M2340 120 c0 -7 218 -10 635 -10 417 0 635 3 635 10 0 7 -218 10
-635 10 -417 0 -635 -3 -635 -10z"/>
</g>
</svg>
