<?xml version="1.0" encoding="UTF-8"?>
<svg xmlns="http://www.w3.org/2000/svg" width="500" height="500" viewBox="0 0 500 500">
<rect x="0" y="0" width="500" height="500" fill="#000000"/>

<metadata>
Created by potrace 1.16, written by Peter Selinger 2001-2019
</metadata>
<g transform="translate(0.000000,500.000000) scale(0.100000,-0.100000)"
fill="#d9d9d9" stroke="none">
<path d="M0 2500 l0 -2500 2500 0 2500 0 0 2500 0 2500 -2500 0 -2500 0 0
-2500z m2350 390 c0 -5 -16 -10 -35 -10 -22 0 -35 -5 -35 -13 0 -14 135 -401
149 -425 8 -14 28 33 84 203 l24 69 -34 93 -33 93 85 0 c50 0 85 -4 85 -10 0
-5 -16 -10 -35 -10 -21 0 -35 -5 -35 -12 0 -19 143 -438 149 -438 7 0 144 420
142 435 0 6 -16 11 -36 13 -67 6 -34 22 45 22 44 0 80 -4 80 -9 0 -5 -10 -11
-22 -13 -20 -3 -33 -31 -105 -238 -45 -129 -82 -244 -82 -256 -1 -22 64 -191
81 -211 6 -7 19 -13 29 -13 10 0 21 -4 24 -10 4 -6 -32 -10 -99 -10 -64 0
-106 4 -106 10 0 6 11 10 25 10 14 0 25 6 25 13 0 6 -14 51 -32 100 l-32 87
-101 0 -100 0 -36 -94 c-20 -52 -34 -97 -31 -100 3 -4 18 -6 34 -6 15 0 28 -4
28 -10 0 -6 -35 -10 -85 -10 -50 0 -85 4 -85 10 0 6 11 10 24 10 30 0 39 11
66 87 l22 61 -82 234 c-130 368 -117 338 -151 338 -16 0 -29 5 -29 10 0 6 43
10 110 10 67 0 110 -4 110 -10z m-310 -95 c0 -13 -76 -15 -624 -15 -344 0
-627 4 -630 9 -3 4 -3 11 1 15 3 3 287 6 630 6 547 0 623 -2 623 -15z m2270 0
c0 -13 -76 -15 -624 -15 -344 0 -627 4 -630 9 -3 4 -3 11 1 15 3 3 287 6 630
6 547 0 623 -2 623 -15z m-1077 -197 c56 -29 64 -93 18 -139 -27 -26 -35 -29
-93 -28 -35 1 -55 3 -45 6 14 4 17 17 17 83 0 66 -3 79 -17 83 -10 3 8 5 40 6
32 0 68 -4 80 -11z m246 -15 l0 -28 -16 23 c-10 14 -26 22 -44 22 -26 0 -29
-3 -29 -35 0 -32 2 -35 33 -37 l32 -1 -32 -4 c-31 -4 -33 -7 -33 -44 0 -36 2
-39 29 -39 18 0 34 8 44 23 l16 22 0 -27 1 -28 -77 1 c-43 1 -70 3 -60 6 14 4
17 17 17 83 0 66 -3 79 -17 83 -10 3 17 5 60 6 l77 1 -1 -27z m181 -2 l0 -25
-16 22 c-16 24 -53 29 -71 11 -18 -18 -4 -39 39 -56 46 -18 63 -44 48 -72 -12
-24 -37 -33 -84 -29 -33 2 -36 5 -36 33 l0 30 13 -25 c15 -30 58 -38 77 -15
16 19 2 36 -51 63 -69 34 -43 95 38 90 39 -2 43 -4 43 -27z m123 22 c-9 -3
-13 -30 -13 -83 0 -53 4 -80 13 -83 6 -3 -6 -5 -28 -5 -22 0 -34 2 -27 5 8 3
12 30 12 83 0 53 -4 80 -12 83 -7 3 5 5 27 5 22 0 34 -2 28 -5z m225 -26 c4
-33 -10 -35 -23 -4 -7 15 -20 23 -42 25 -40 4 -63 -27 -63 -84 0 -50 25 -77
67 -72 22 2 29 9 31 30 2 19 -2 28 -15 31 -10 3 2 5 27 5 25 0 39 -2 33 -5 -7
-2 -13 -19 -13 -36 0 -32 -1 -32 -55 -35 -47 -3 -58 0 -80 22 -35 35 -35 97 0
132 22 22 32 25 78 22 48 -4 52 -6 55 -31z m164 -34 l53 -67 3 58 c2 41 -1 62
-10 67 -8 6 0 8 22 8 19 -1 27 -3 18 -6 -15 -4 -18 -17 -18 -89 0 -46 -3 -84
-7 -84 -5 0 -23 20 -41 43 -18 23 -43 56 -57 72 l-25 30 0 -67 c0 -55 3 -67
18 -71 9 -3 -1 -5 -23 -5 -22 0 -32 2 -22 5 14 4 17 17 17 83 0 66 -3 79 -17
83 -12 3 -8 5 9 6 21 1 37 -12 80 -66z m-3020 49 c-10 -7 -7 -22 11 -72 l24
-63 15 44 c9 26 12 52 7 64 -12 32 -11 35 19 35 17 0 22 -3 15 -8 -10 -6 -8
-23 9 -72 l21 -65 22 65 c16 46 19 67 11 72 -6 4 3 7 19 7 17 0 25 -3 18 -5
-6 -3 -24 -41 -38 -85 -15 -43 -30 -81 -35 -84 -5 -3 -17 18 -28 46 l-19 52
-18 -52 c-11 -28 -22 -51 -26 -51 -3 0 -19 35 -34 78 -15 42 -35 83 -43 90
-13 10 -10 12 24 12 23 0 34 -3 26 -8z m367 -19 l0 -28 -16 23 c-10 14 -26 22
-44 22 -26 0 -29 -3 -29 -35 0 -32 2 -35 33 -37 l32 -1 -32 -4 c-31 -4 -33 -7
-33 -44 0 -36 2 -39 29 -39 18 0 34 8 44 23 l16 22 0 -27 1 -28 -77 1 c-43 1
-70 3 -60 6 14 4 17 17 17 83 0 66 -3 79 -17 83 -10 3 17 5 60 6 l77 1 -1 -27z
m169 15 c15 -15 16 -55 1 -64 -8 -5 -6 -10 5 -16 23 -13 21 -65 -3 -78 -11 -5
-46 -10 -78 -9 -32 0 -52 3 -45 6 8 3 12 30 12 83 0 53 -4 80 -12 83 -7 3 14
6 48 6 34 1 65 -4 72 -11z m352 -388 c0 -7 -217 -10 -630 -10 -413 0 -630 3
-630 10 0 7 217 10 630 10 413 0 630 -3 630 -10z m2270 0 c0 -7 -217 -10 -630
-10 -413 0 -630 3 -630 10 0 7 217 10 630 10 413 0 630 -3 630 -10z"/>
<path d="M2511 2505 c-23 -58 -41 -110 -41 -115 0 -6 38 -10 85 -10 47 0 85 3
85 8 0 8 -80 215 -85 220 -2 2 -21 -44 -44 -103z"/>
<path d="M3150 2520 l0 -80 34 0 c41 0 56 17 63 69 8 57 -16 91 -62 91 l-35 0
0 -80z"/>
<path d="M1610 2555 c0 -34 2 -36 28 -33 23 3 27 8 27 33 0 25 -4 30 -27 33
-26 3 -28 1 -28 -33z"/>
<path d="M1610 2469 c0 -39 1 -40 33 -37 27 3 33 7 35 32 4 31 -10 46 -45 46
-20 0 -23 -5 -23 -41z"/>
</g>

</svg>
