<?xml version="1.0" encoding="UTF-8"?>
<svg xmlns="http://www.w3.org/2000/svg" width="500" height="500" viewBox="0 0 500 500">
<rect x="0" y="0" width="500" height="500" fill="#000000"/>

<metadata>
Created by potrace 1.16, written by Peter Selinger 2001-2019
</metadata>
<g transform="translate(-78.000000,290.000000) scale(0.100000,-0.100000)"
fill="#ffffff" stroke="none">
<path d="M2132 2888 c3 -7 17 -15 33 -18 26 -5 32 -17 127 -284 l100 -280 -27
-67 c-24 -62 -29 -68 -57 -71 -17 -2 -33 -9 -36 -15 -3 -10 20 -13 93 -13 86
0 96 2 85 15 -7 8 -23 15 -36 15 -13 0 -24 3 -24 6 0 4 15 47 33 96 l32 88
100 -2 99 -3 33 -85 c17 -47 32 -88 32 -92 1 -4 -11 -8 -26 -10 -14 -2 -28 -9
-31 -15 -3 -10 23 -13 107 -13 110 0 143 11 80 28 -28 7 -35 17 -70 102 -21
52 -38 101 -38 108 -1 8 36 121 81 253 76 220 84 238 107 241 13 2 26 9 29 16
3 9 -18 12 -82 12 -70 0 -86 -3 -86 -15 0 -10 11 -15 35 -15 19 0 35 -3 35 -7
0 -17 -134 -423 -140 -423 -6 0 -150 407 -150 423 0 4 16 7 35 7 24 0 35 5 35
15 0 12 -16 15 -86 15 -65 0 -85 -3 -82 -12 3 -7 18 -50 34 -96 l29 -82 -44
-128 c-24 -70 -47 -133 -51 -141 -4 -8 -38 75 -83 203 -43 119 -77 219 -77
221 0 3 16 5 35 5 24 0 35 5 35 15 0 12 -19 15 -111 15 -84 0 -110 -3 -107
-12z m426 -496 c-44 -2 -82 -1 -84 1 -2 1 16 52 38 111 l42 108 42 -108 42
-109 -80 -3z"/>
<path d="M782 2798 c4 -10 141 -14 631 -16 553 -2 627 0 627 13 0 13 -75 15
-631 15 -500 0 -630 -3 -627 -12z"/>
<path d="M3055 2800 c-3 -6 0 -12 7 -15 26 -10 1253 0 1251 10 -4 14 -1249 19
-1258 5z"/>
<path d="M3108 2603 c8 -3 12 -30 12 -83 0 -53 -4 -80 -12 -83 -7 -3 17 -6 53
-6 57 -1 70 2 93 24 36 33 37 95 1 130 -21 22 -33 25 -92 24 -37 0 -62 -3 -55
-6z m111 -13 c24 -12 35 -69 21 -106 -13 -33 -26 -44 -57 -44 -22 0 -23 4 -23
80 0 74 2 80 21 80 11 0 28 -4 38 -10z"/>
<path d="M3343 2603 c14 -4 17 -17 17 -83 0 -66 -3 -79 -17 -83 -10 -3 17 -5
60 -6 l77 -1 0 30 c0 37 -7 38 -20 5 -7 -19 -17 -25 -40 -25 -28 0 -30 2 -30
39 0 37 2 40 33 44 l32 4 -32 1 c-31 2 -33 5 -33 37 0 32 2 35 31 35 22 0 32
-5 36 -20 7 -28 23 -25 23 5 0 25 -1 25 -77 24 -43 -1 -70 -3 -60 -6z"/>
<path d="M3546 2589 c-20 -29 -7 -53 45 -79 31 -16 40 -26 37 -43 -4 -32 -59
-31 -73 1 -13 30 -25 28 -25 -6 0 -28 2 -29 53 -31 42 -1 57 3 71 18 27 30 16
53 -37 81 -35 19 -47 30 -45 45 4 29 57 34 65 6 7 -28 23 -27 23 2 0 21 -5 24
-49 26 -41 2 -52 -2 -65 -20z"/>
<path d="M3723 2603 c14 -4 17 -17 17 -83 0 -66 -3 -79 -17 -83 -10 -3 2 -5
27 -5 25 0 39 2 33 5 -9 3 -13 30 -13 83 0 53 4 80 13 83 6 3 -8 5 -33 5 -25
0 -37 -2 -27 -5z"/>
<path d="M3873 2586 c-22 -19 -28 -32 -28 -66 0 -34 6 -47 28 -66 24 -20 38
-24 83 -22 54 2 54 2 54 34 0 18 6 35 13 37 6 3 -8 5 -33 5 -25 0 -37 -2 -27
-5 22 -6 23 -49 1 -57 -48 -19 -84 13 -84 74 0 49 24 80 61 80 22 0 32 -7 41
-25 15 -33 28 -32 28 3 0 27 -2 28 -54 30 -45 2 -59 -2 -83 -22z"/>
<path d="M4078 2603 c8 -3 12 -30 12 -83 0 -53 -4 -80 -12 -83 -7 -3 5 -5 27
-5 22 0 32 2 23 5 -15 4 -18 16 -18 65 0 70 3 69 70 -18 60 -77 70 -73 70 30
0 58 4 86 13 89 6 3 -6 5 -28 5 -22 0 -32 -2 -22 -5 14 -4 17 -16 17 -66 0
-33 -4 -57 -8 -51 -5 5 -30 35 -56 67 -37 44 -54 57 -75 56 -14 0 -20 -3 -13
-6z"/>
<path d="M1104 2585 c8 -8 18 -25 22 -38 19 -64 46 -127 54 -127 5 0 14 17 20
38 18 56 26 58 42 11 8 -24 19 -44 24 -46 5 -2 22 35 38 82 16 46 34 86 40 89
6 2 -2 4 -19 4 -16 0 -25 -2 -18 -4 8 -4 6 -22 -9 -65 -11 -33 -22 -59 -23
-57 -2 2 -13 28 -24 58 -16 41 -18 56 -8 62 7 5 2 8 -16 8 -26 0 -27 -2 -21
-39 4 -25 1 -48 -9 -66 l-14 -28 -21 61 c-15 44 -17 62 -9 66 7 2 -5 5 -26 5
-34 1 -37 -1 -23 -14z"/>
<path d="M1383 2593 c14 -4 17 -17 17 -83 0 -66 -3 -79 -17 -83 -10 -3 17 -5
60 -6 l77 -1 0 30 c0 37 -7 38 -20 5 -7 -19 -17 -25 -40 -25 -28 0 -30 2 -30
39 0 37 2 40 33 44 l32 4 -32 1 c-31 2 -33 5 -33 37 0 32 2 35 31 35 22 0 32
-5 36 -20 7 -28 23 -25 23 5 0 25 -1 25 -77 24 -43 -1 -70 -3 -60 -6z"/>
<path d="M1568 2593 c8 -3 12 -30 12 -83 0 -53 -4 -80 -12 -83 -7 -3 15 -6 50
-6 49 -1 66 3 82 19 25 25 25 35 0 60 -11 11 -15 22 -10 25 14 9 12 49 -2 63
-7 7 -38 12 -72 11 -34 0 -55 -3 -48 -6z m97 -38 c0 -25 -4 -30 -27 -33 -26
-3 -28 -1 -28 33 0 34 2 36 28 33 23 -3 27 -8 27 -33z m9 -67 c15 -25 -3 -52
-38 -56 -24 -3 -26 -1 -26 38 0 39 2 41 26 38 15 -2 32 -11 38 -20z"/>
<path d="M780 2200 c0 -7 217 -10 630 -10 413 0 630 3 630 10 0 7 -217 10
-630 10 -413 0 -630 -3 -630 -10z"/>
<path d="M3050 2200 c0 -7 217 -10 630 -10 413 0 630 3 630 10 0 7 -217 10
-630 10 -413 0 -630 -3 -630 -10z"/>
</g>

</svg>
