<?xml version="1.0" standalone="no"?>
<!DOCTYPE svg PUBLIC "-//W3C//DTD SVG 20010904//EN"
 "http://www.w3.org/TR/2001/REC-SVG-20010904/DTD/svg10.dtd">
<svg version="1.0" xmlns="http://www.w3.org/2000/svg"
 width="85.785536pt" height="76.000000pt" viewBox="0 0 85.785536 76.000000"
 preserveAspectRatio="xMidYMid meet">
<metadata>
Created by potrace 1.16, written by Peter Selinger 2001-2019
</metadata>
<g transform="translate(-8.000000,82.000000) scale(0.100000,-0.100000)"
fill="#d9d9d9" stroke="none">
<path d="M80 809 c0 -5 5 -7 10 -4 6 3 10 8 10 11 0 2 -4 4 -10 4 -5 0 -10 -5
-10 -11z"/>
<path d="M110 805 c0 -10 10 -15 29 -15 34 0 19 32 145 -323 l85 -239 -26 -68
c-23 -63 -28 -69 -56 -72 -17 -2 -32 -9 -35 -15 -3 -10 20 -13 93 -13 86 0 96
2 85 15 -7 8 -23 15 -36 15 -13 0 -24 3 -23 8 0 4 15 45 32 92 l33 85 98 0 99
0 33 -90 c19 -49 34 -91 34 -92 0 -2 -13 -3 -30 -3 -20 0 -30 -5 -30 -15 0
-12 19 -15 111 -15 84 0 110 3 107 13 -3 6 -16 13 -30 15 -23 3 -31 16 -68
107 l-42 104 84 245 c76 224 85 245 107 248 14 2 26 9 29 16 3 9 -18 12 -82
12 -70 0 -86 -3 -86 -15 0 -10 11 -15 35 -15 19 0 35 -3 35 -7 0 -14 -132
-408 -140 -416 -3 -4 -37 84 -75 195 -38 112 -70 208 -72 215 -3 7 9 13 33 15
21 2 39 9 42 16 3 9 -19 12 -88 12 -70 0 -91 -3 -88 -12 3 -7 17 -50 32 -96
l28 -83 -48 -140 c-26 -76 -48 -138 -49 -137 -1 2 -34 94 -74 205 -39 112 -74
209 -77 217 -4 11 4 16 32 18 21 2 39 9 42 16 3 9 -24 12 -112 12 -96 0 -116
-3 -116 -15z m468 -392 l40 -103 -84 0 -84 0 21 53 c12 28 30 76 41 105 11 29
21 52 23 50 2 -2 21 -49 43 -105z"/>
</g>
</svg>
