<?xml version="1.0" standalone="no"?>
<!DOCTYPE svg PUBLIC "-//W3C//DTD SVG 20010904//EN"
 "http://www.w3.org/TR/2001/REC-SVG-20010904/DTD/svg10.dtd">
<svg version="1.0" xmlns="http://www.w3.org/2000/svg"
 width="354.868877pt" height="76.000000pt" viewBox="0 0 354.868877 76.000000"
 preserveAspectRatio="xMidYMid meet">
<metadata>
Created by potrace 1.16, written by Peter Selinger 2001-2019
</metadata>
<g transform="translate(-6.131123,82.000000) scale(0.100000,-0.100000)"
fill="#000000" stroke="none">
<path d="M1422 808 c3 -7 18 -15 34 -18 28 -5 32 -13 127 -280 l99 -275 -24
-70 c-21 -62 -27 -71 -53 -75 -15 -3 -30 -11 -33 -17 -3 -10 18 -13 82 -13 47
0 86 4 86 9 0 11 -25 21 -50 21 -16 0 -14 10 18 95 l35 95 101 0 102 0 32 -87
c18 -49 32 -91 32 -95 0 -5 -11 -8 -25 -8 -16 0 -25 -6 -25 -15 0 -12 18 -15
105 -15 105 0 136 12 73 28 -29 7 -36 17 -70 102 -21 51 -38 101 -38 109 0 9
36 123 81 253 68 200 84 237 102 240 11 2 22 9 25 16 3 9 -17 12 -78 12 -61 0
-81 -3 -78 -12 3 -7 20 -14 40 -16 l35 -3 -71 -219 c-39 -121 -74 -220 -77
-220 -5 0 -149 417 -149 432 0 4 14 8 32 10 17 2 33 9 36 16 3 9 -18 12 -82
12 l-86 0 34 -92 33 -93 -50 -148 c-28 -81 -51 -146 -52 -145 -5 5 -155 431
-155 439 0 4 14 9 32 11 17 2 33 9 36 16 3 9 -23 12 -108 12 -85 0 -111 -3
-108 -12z m462 -373 c19 -50 37 -98 41 -107 6 -16 -1 -18 -79 -18 -47 0 -86 2
-86 5 0 10 82 216 85 213 2 -2 20 -44 39 -93z"/>
<path d="M66 715 c5 -13 83 -15 637 -13 493 2 631 6 635 16 3 9 -129 12 -637
12 -566 0 -640 -2 -635 -15z"/>
<path d="M2340 715 c0 -13 74 -15 632 -13 494 2 632 6 636 16 3 9 -128 12
-632 12 -560 0 -636 -2 -636 -15z"/>
<path d="M2403 523 c14 -4 17 -17 17 -83 0 -66 -3 -79 -17 -83 -10 -3 10 -5
45 -6 58 -1 66 2 93 28 29 29 37 68 23 106 -11 27 -60 45 -121 44 -32 -1 -50
-3 -40 -6z m118 -20 c8 -9 14 -37 14 -63 0 -58 -17 -80 -61 -80 l-34 0 0 80 0
80 34 0 c19 0 39 -7 47 -17z"/>
<path d="M2633 523 c14 -4 17 -17 17 -83 0 -66 -3 -79 -17 -83 -10 -3 17 -5
60 -6 l77 -1 0 33 -1 32 -15 -27 c-11 -21 -22 -28 -44 -28 -28 0 -30 2 -30 39
0 37 2 40 33 44 l32 4 -32 1 c-31 2 -33 5 -33 37 0 32 3 35 29 35 18 0 34 -8
44 -22 l16 -23 0 28 1 27 -77 -1 c-43 -1 -70 -3 -60 -6z"/>
<path d="M2846 517 c-28 -21 -17 -59 23 -79 53 -27 67 -44 51 -63 -19 -23 -62
-15 -77 15 l-13 25 0 -30 c0 -28 3 -31 36 -33 47 -4 72 5 84 29 15 28 -2 54
-48 72 -43 17 -57 38 -39 56 18 18 55 13 71 -11 l16 -22 0 25 c0 23 -4 25 -43
27 -23 2 -50 -3 -61 -11z"/>
<path d="M3018 523 c8 -3 12 -30 12 -83 0 -53 -4 -80 -12 -83 -7 -3 5 -5 27
-5 22 0 34 2 28 5 -9 3 -13 30 -13 83 0 53 4 80 13 83 6 3 -6 5 -28 5 -22 0
-34 -2 -27 -5z"/>
<path d="M3165 506 c-35 -35 -35 -97 0 -132 22 -22 33 -25 80 -22 54 3 55 3
55 35 0 17 6 34 13 36 6 3 -8 5 -33 5 -25 0 -37 -2 -27 -5 13 -3 17 -12 15
-31 -2 -21 -9 -28 -31 -30 -42 -5 -67 22 -67 72 0 57 23 88 63 84 22 -2 35
-10 42 -25 13 -31 27 -29 23 4 -3 25 -7 27 -55 31 -46 3 -56 0 -78 -22z"/>
<path d="M3373 523 c14 -4 17 -17 17 -83 0 -66 -3 -79 -17 -83 -10 -3 0 -5 22
-5 22 0 32 2 23 5 -15 4 -18 16 -18 69 0 35 1 64 3 64 1 0 27 -31 57 -70 30
-38 58 -69 63 -70 4 0 8 26 9 58 1 31 2 67 3 80 0 13 7 27 15 32 11 7 5 10
-20 10 -22 0 -30 -3 -22 -9 9 -5 12 -26 10 -65 l-3 -58 -53 66 c-43 54 -58 66
-80 65 -17 -1 -20 -3 -9 -6z"/>
<path d="M392 508 c8 -7 28 -48 43 -90 15 -43 31 -78 34 -78 4 0 15 23 26 51
l18 52 19 -52 c11 -28 23 -49 28 -46 5 3 20 41 35 84 14 44 32 82 38 85 7 2
-1 5 -18 5 -16 0 -25 -3 -19 -7 8 -5 5 -26 -11 -72 l-22 -65 -21 65 c-17 49
-19 66 -9 72 7 5 2 8 -15 8 -30 0 -31 -3 -19 -35 5 -12 2 -38 -7 -64 l-15 -44
-24 63 c-18 50 -21 65 -11 72 8 5 -3 8 -26 8 -34 0 -37 -2 -24 -12z"/>
<path d="M673 513 c14 -4 17 -17 17 -83 0 -66 -3 -79 -17 -83 -10 -3 17 -5 60
-6 l77 -1 0 33 -1 32 -15 -27 c-11 -21 -22 -28 -44 -28 -28 0 -30 2 -30 39 0
37 2 40 33 44 l32 4 -32 1 c-31 2 -33 5 -33 37 0 32 3 35 29 35 18 0 34 -8 44
-22 l16 -23 0 28 1 27 -77 -1 c-43 -1 -70 -3 -60 -6z"/>
<path d="M858 513 c8 -3 12 -30 12 -83 0 -53 -4 -80 -12 -83 -7 -3 13 -6 45
-6 32 -1 67 4 78 9 24 13 26 65 3 78 -11 6 -13 11 -5 16 15 9 14 49 -1 64 -7
7 -38 12 -72 11 -34 0 -55 -3 -48 -6z m97 -38 c0 -25 -4 -30 -27 -33 -26 -3
-28 -1 -28 33 0 34 2 36 28 33 23 -3 27 -8 27 -33z m3 -54 c8 -5 12 -21 10
-37 -2 -25 -8 -29 -35 -32 -32 -3 -33 -2 -33 37 0 36 3 41 23 41 12 0 28 -4
35 -9z"/>
<path d="M73 133 c-50 -19 46 -23 627 -23 369 0 640 4 640 9 0 5 -7 12 -16 15
-19 7 -1233 7 -1251 -1z"/>
<path d="M2353 133 c-50 -19 46 -23 622 -23 366 0 635 4 635 9 0 5 -7 12 -16
15 -19 7 -1223 7 -1241 -1z"/>
</g>
</svg>
